<?xml version="1.0" encoding="UTF-8"?><svg id="Layer_2" xmlns="http://www.w3.org/2000/svg" viewBox="0 0 500 527"><g id="svg2"><g id="g10"><path id="path12" d="M272.11,244.98c.17,15.92-8.92,20.09-10.46,21.9,0,4.48,8.6,97.11,8.6,97.11,0,0-7.1,10.34-21.74,10.26-14.09-.08-20.45-9.93-21.41-11.37-.64-1.26,8.26-95.58,8.26-95.58,0,0-17.84-7.13-12.36-27.66,7.06-26.53,48.8-22.54,49.1,5.34" style="fill:#ffd300;"/><path id="path14" d="M125.44,262.43s12.86-1.02,15.06-17.26c5.15.16,9.36.16,9.36.16v46.84l6.02,5.65v.66h-29.91s0-.69,0-.69l6.67-5.66.02-22.18h-7.22v-7.53" style="fill:#ffd300;"/><path id="path16" d="M348.35,275.36c0,5.98,3.14,10.81,7.01,10.81s7.02-4.83,7.02-10.81-3.17-10.8-7.02-10.8-7.01,4.83-7.01,10.8ZM334.41,283.27c-3.85-9.15-4.05-21.49.3-31.33,5.3-12.1,15.92-13.15,21.88-13.15s15,1.6,18.74,8.25c-.45,2.96-4.37,4.17-5.86,4.23-2.49-2.13-7.7-3.35-11.23-3.05-4.71.37-8.61,3.19-9.52,9.55,2.33-1.46,4.9-2.92,12.89-2.92,5.87,0,16.96,5.78,16.34,19.74-.56,13.17-10.63,22.56-23.62,22.56-10.8,0-16.19-4.97-19.92-13.87" style="fill:#ffd300;"/><path id="path18" d="M177.05,262.4c0,5.69,3.06,10.28,6.84,10.28s6.83-4.59,6.83-10.28-3.07-10.29-6.83-10.29-6.84,4.6-6.84,10.29ZM205.73,256.19c3.92,9.88,1.76,24.74-1.23,30.55-3.3,6.42-9.38,14.6-21.7,14.6-6,0-19.31-4.23-20.56-11.4.44-2.96,3.44-4.07,4.88-4.14,2.5,2.13,9.16,6.06,15.2,5.32,4.68-.58,8.52-6.91,8.46-12.94-3.12,2.13-5.5,5.42-13.48,5.42-5.88,0-18.46-4.74-17.71-19.42.69-13.16,11.15-21.69,24.11-21.69,10.81,0,18.75,5.42,22.03,13.71" style="fill:#ffd300;"/><path id="path20" d="M324.04,249.28c3.45,8.7-4.25,14.61-4.25,14.61,0,0,9.53,3.49,9.67,13.5.18,10.83-11.46,21.29-22.78,21.1-9.47-.11-17.08-6.35-18.29-10.27-1.32-4.34.77-10.81,2.4-12,1.62-1.19,8.27-.66,8.21,1.37-.04,2.42-1.09,9.73,6.09,9.9,5.03.1,7.87-5.48,7.87-9.58,0-7.38-4.87-10.12-9.88-10.26,0-2.23.04-2.65.04-2.65,0,0,7.85-1.93,7.46-8.79-.38-6.48-8.18-8.97-10.29-4.82-.39.79.78,3.2.78,4.64,0,1.36-4.16,5.04-6.99,4.64-2.46-.33-6.26-4.05-5.85-8.4.39-4.34,4.53-8.28,7.98-10.45,4.19-2.63,21.97-7.39,27.83,7.46" style="fill:#ffd300;"/><path id="path22" d="M162.31,321.6v23.27s0,2.06,6.68,1.79c6.68-.26,11.03-4.86,10.76-13.29-.36-11.9-9.04-13.04-12.6-12.92-2.54.1-4.85,1.14-4.85,1.14ZM131.64,312.4h59.15s16.55,5.02,16.55,21.14c0,14.64-19,19.23-19,19.23,0,0,5.94,1.59,16.98,10.3,5.6,4.41,15.28,18.88,25.16,24.49,10.96,6.25,23.86,5.27,23.86,5.27,0,0,.01,6.69-6.67,10.4-5.99,3.32-13.99,4.22-17.68,4.38-4.11.18-14.42-2.98-26.76-13.86-7.47-6.8-16.62-20.98-24.03-27.93-5.94-5.58-8.83-9.27-8.83-9.27h-7.74v19.09l9.04,19.89s-.32.89-1.71,1.05c-13.56-6.34-17.16-10.75-26.12-18.47-4.11-3.56-9.49-5.89-9.49-5.89v-2.18l5.74-4.57v-42.31l-8.45-9.51v-1.25" style="fill:#ffd300;"/><path id="path24" d="M278.27,310.95h43.99v1.66s-8.78,4.16-9.19,9.13v64.85s13.86-.28,22.03-6.98c7.07-5.76,12.77-11.4,14.81-16.08-4.27-.3-6.6-1.37-6.75-6.01-.14-4.41,7.21-8,13.47-8,6.57,0,11.14,3.44,10.1,8.13-2.19,10-18.41,28.52-32.93,37.34-14.25,8.65-51.15,16.02-56.1,14.09v-1.81s11.72-9.99,11.36-16.74c-.24-4.08-1.29-62.77-1.29-68.23-.28-4.39-9.5-9.7-9.5-9.7v-1.66" style="fill:#ffd300;"/><path id="path26" d="M122.43,217.88s-12.61,16.84-17.62,39.87c-4.88,22.44-2.69,51.85.5,68.55,6.91,36.24,55.5,111.68,147.22,108.24,45.41-1.69,104.7-24.83,131.2-90.9,10.88-27.21,12.9-63.1,7.06-86.27-6.82-27-19.65-44.79-19.65-44.79,0,0-9.71,14.24-26.51,14.24-14.09,0-50.61-28.5-61.09-28.5-11.59,0-24.79,9.33-36.22,9.8-11.44.5-18.76-7.9-31.05-7.9s-53.44,31.32-70.28,30.78c-16.24-.52-23.56-13.13-23.56-13.13h0ZM149.48,169.12c5.39-.47,194.72,0,194.72,0,0,0,10.59-33.68,1.49-63.31-16.32-53.13-71.99-72.81-101.12-71.83-29.13.98-84.16,16.4-99.48,83.97-6.24,27.51,5.13,50.16,4.49,51.14l-.1.03h0ZM108.18,131.17C108.18,64.29,173.42,0,246.99,0s133.3,59.93,136.05,126.78c.56,13.5.61,33.12-12.7,68.97,37.3,44.24,39.55,99.26,24.31,144.82-24.96,76.08-109.39,102.89-144.65,102.89-38.17,0-147.66-28.03-156.07-146.92-2.87-40.52,15.82-76.76,30.28-97.91-13.88-29.3-16.04-50.87-16.04-67.47" style="fill:#ffd300;"/><path id="path28" d="M84.65,148.65s9.16,46.63-1.83,75.69c-5.81,15.3-14.69,24.8-21.51,38.86-5.25,10.73-6.02,21.46-8.4,25.82-7.33,13.47-8.07,23.55-8.39,33.48-.26,8.17,8.92,34.26,14.16,46.02,1.07,0,2.1-.26,2.1-.26,0,0-20.73-39.85-8.91-69.51,5.33-13.4,26.23-27.89,34.1-33-1.58,4.6-8.13,19.44-5.77,49.35,2.04,25.73-11.84,37.58-12.07,50.37-.09,5.42-1.55,12.71,3.68,23.25,4.23,8.57,12.34,16.05,18.73,24.63,5.94,8,10.39,16.32,14.02,20.56,10.73,12.52,27.52,27.5,27.52,27.5l1.15-.94s-37-33.86-42.11-52.51c-5.12-18.66-6.45-44.8,3.24-56.31,7.39,9.22,20.55,33.1,28.87,47.55,6.03,10.49,7.41,49.24,18.9,62.89,10.75,12.8,31.99,25.31,31.99,25.31h-24.66s-26.18-15.74-36.21-18.66c-10.5-3.08-32-1.78-56.14-26.58-13.83-14.21-16.52-20.71-20.45-31.97,5.05,1.12,28.78,8.52,36.8,11.47,18.09,6.72,35.86,28.68,35.86,28.68l1.04-.79s-8.88-11.7-12.25-14.59c-6.67-5.7-16.04-10.53-17.27-12.19-9.19-12.26-19.01-18.85-24.52-22.3-13.11-8.17-42.24-24.03-49.58-40.9-8.19-18.8-5.5-42.44-5.5-42.44,0,0,26.75,23.7,33.67,29.11,6.55,5.11,29.8,39.65,29.8,39.65l1.3-.48-19.39-28.15s.08-6.88-3.93-15.32c-4.99-10.48-36.21-57.53-39.1-65.46-3.93-10.73-8.14-48.3,8.12-68.24,8.68,16.88,14.47,30.65,20.73,47.31,6.26,16.62,8.9,55.25,8.9,55.25h1.35l-1.35-26.17s4.4-9.24,4.22-25.53c-.15-15.53.37-63.95,9.72-78.74,9.68-15.34,29.37-31.71,29.37-31.71" style="fill:#ffd300;"/><path id="path30" d="M415.36,147.83s-9.19,46.63,1.83,75.67c5.8,15.33,14.68,24.81,21.53,38.85,5.23,10.76,6.02,21.49,8.37,25.83,7.32,13.47,8.06,23.58,8.4,33.48.25,8.18-8.91,34.27-14.16,46.03-1.05,0-2.11-.25-2.11-.25,0,0,20.75-39.89,8.92-69.55-5.35-13.36-26.21-27.86-34.1-32.95,1.55,4.57,8.15,19.4,5.77,49.33-2.07,25.73,11.8,37.59,12.05,50.35.09,5.45,1.53,12.74-3.67,23.3-4.26,8.56-12.34,16.03-18.7,24.61-5.95,8.02-10.41,16.33-14.04,20.56-10.74,12.54-27.5,27.5-27.5,27.5l-1.17-.93s37.01-33.87,42.12-52.53c5.14-18.65,6.46-44.78-3.26-56.3-7.38,9.23-20.54,33.09-28.87,47.54-6.05,10.48-7.39,49.22-18.89,62.9-10.75,12.77-32.02,25.29-32.02,25.29h24.68s26.16-15.73,36.21-18.66c10.51-3.06,31.99-1.78,56.12-26.58,13.86-14.21,16.54-20.7,20.48-31.96-5.06,1.12-28.78,8.5-36.8,11.47-18.09,6.72-35.88,28.65-35.88,28.65l-1.03-.76s8.89-11.71,12.24-14.59c6.67-5.72,16.04-10.52,17.27-12.17,9.19-12.28,19.03-18.88,24.52-22.33,13.13-8.15,42.24-24.02,49.58-40.88,8.19-18.82,5.53-42.45,5.53-42.45,0,0-26.77,23.69-33.68,29.11-6.56,5.1-29.83,39.66-29.83,39.66l-1.27-.48,19.4-28.15s-.09-6.9,3.92-15.34c4.98-10.5,36.22-57.53,39.07-65.44,3.99-10.73,8.16-48.33-8.11-68.27-8.66,16.89-14.45,30.65-20.73,47.3-6.24,16.65-8.88,55.28-8.88,55.28h-1.35l1.35-26.16s-4.39-9.25-4.22-25.54c.13-15.54-.35-63.96-9.71-78.75-9.69-15.34-29.37-31.71-29.37-31.71" style="fill:#ffd300;"/><path id="path32" d="M151.63,423.25s10.17,12.57,18.31,15.99c8.14,3.42,27.58,9.5,36.89,14.82,9.31,5.3,19.36,19.2,25.55,28.63,6.19,9.46,9.16,14.99,20.05,14.59,12.27-.47,19.84-18.03,29.16-30.11,9.31-12.06,24.08-19.23,32.75-22.05,7.42-2.38,28.49-12.24,36.93-27.24.96,15-2.72,30.42-8.69,43.93-6.93,15.78-18.79,24.26-35.18,33.38-14.27,7.92-44.13,11.48-44.13,11.48v1.63s19.04-.91,30.84-4.42c10.84-3.22,18.29-10.45,30.42-12.96,12.51-2.57,37.68-1.93,43.88-1.17,6.23.76,23.57,8.84,25.74,15.52-19.77-.56-25.68,2.96-39.51,7.76-19.53,6.78-31.1,12.43-45.57,13.83-13.7,1.34-39.32-7.07-48.71-12.66-7.2-4.26-15.78.06-20.98,2.81-8.89,4.71-20.7,8.45-40.46,8.69-18.65.22-47.69-10.28-57.39-12.88-9.7-2.65-20.96-5.43-29.16-3.35,3.59-8.22,16.46-16.56,23.83-18.08,7.36-1.51,41.48-1.86,41.48-1.86,0,0,19.6,12.25,28.68,15.29,12.57,4.18,35.68,4.43,35.68,4.43v-1.64s-35.63-1.63-54.24-14.1c-18.61-12.51-28.89-28.92-30.83-40.61-1.95-11.7-5.33-29.64-5.33-29.64" style="fill:#ffd300;"/></g></g></svg>