<svg xmlns="http://www.w3.org/2000/svg" viewBox="0 0 500 527">
  <g fill="#ffd300">
    <path d="M272.11,244.98c.17,15.92-8.92,20.09-10.46,21.9,0,4.48,8.6,97.11,8.6,97.11,0,0-7.1,10.34-21.74,10.26-14.09-.08-20.45-9.93-21.41-11.37-.64-1.26,8.26-95.58,8.26-95.58,0,0-17.84-7.13-12.36-27.66,7.06-26.53,48.8-22.54,49.1,5.34"/>
    <path d="M125.44,262.43s12.86-1.02,15.06-17.26c5.15.16,9.36.16,9.36.16v46.84l6.02,5.65v.66h-29.91s0-.69,0-.69l6.67-5.66.02-22.18h-7.22v-7.53"/>
    <path d="M348.35,275.36c0,5.98,3.14,10.81,7.01,10.81s7.02-4.83,7.02-10.81-3.17-10.8-7.02-10.8-7.01,4.83-7.01,10.8ZM334.41,283.27c-3.85-9.15-4.05-21.49.3-31.33,5.3-12.1,15.92-13.15,21.88-13.15s15,1.6,18.74,8.25c-.45,2.96-4.37,4.17-5.86,4.23-2.49-2.13-7.7-3.35-11.23-3.05-4.71.37-8.61,3.19-9.52,9.55,2.33-1.46,4.9-2.92,12.89-2.92,5.87,0,16.96,5.78,16.34,19.74-.56,13.17-10.63,22.56-23.62,22.56-10.8,0-16.19-4.97-19.92-13.87"/>
    <path d="M177.05,262.4c0,5.69,3.06,10.28,6.84,10.28s6.83-4.59,6.83-10.28-3.07-10.29-6.83-10.29-6.84,4.6-6.84,10.29ZM205.73,256.19c3.92,9.88,1.76,24.74-1.23,30.55-3.3,6.42-9.38,14.6-21.7,14.6-6,0-19.31-4.23-20.56-11.4.44-2.96,3.44-4.07,4.88-4.14,2.5,2.13,9.16,6.06,15.2,5.32,4.68-.58,8.52-6.91,8.46-12.94-3.12,2.13-5.5,5.42-13.48,5.42-5.88,0-18.46-4.74-17.71-19.42.69-13.16,11.15-21.69,24.11-21.69,10.81,0,18.75,5.42,22.03,13.71"/>
    <path d="M324.04,249.28c3.45,8.7-4.25,14.61-4.25,14.61,0,0,9.53,3.49,9.67,13.5.18,10.83-11.46,21.29-22.78,21.1-9.47-.11-17.08-6.35-18.29-10.27-1.32-4.34.77-10.81,2.4-12,1.62-1.19,8.27-.66,8.21,1.37-.04,2.42-1.09,9.73,6.09,9.9,5.03.1,7.87-5.48,7.87-9.58,0-7.38-4.87-10.12-9.88-10.26,0-2.23.04-2.65.04-2.65,0,0,7.85-1.93,7.46-8.79-.38-6.48-8.18-8.97-10.29-4.82-.39.79.78,3.2.78,4.64,0,1.36-4.16,5.04-6.99,4.64-2.46-.33-6.26-4.05-5.85-8.4.39-4.34,4.53-8.28,7.98-10.45,4.19-2.63,21.97-7.42,30.83,6.01Z"/>
    <path d="M259.58,194.77c0,0-12.31-16.49-29.52-16.49-17.21,0-29.52,16.49-29.52,16.49,0,0-17.44,12.67-17.44,33.58,0,20.91,17.44,33.58,17.44,33.58,0,0,12.31,16.49,29.52,16.49,17.21,0,29.52-16.49,29.52-16.49,0,0,17.44-12.67,17.44-33.58,0-20.91-17.44-33.58-17.44-33.58ZM230.06,272.28c-11.11,0-20.12-10.52-20.12-23.49,0-12.97,9.01-23.49,20.12-23.49,11.11,0,20.12,10.52,20.12,23.49,0,12.97-9.01,23.49-20.12,23.49Z"/>
    <path d="M376.19,217.22c0,0-12.31-16.49-29.52-16.49-17.21,0-29.52,16.49-29.52,16.49,0,0-17.44,12.67-17.44,33.58,0,20.91,17.44,33.58,17.44,33.58,0,0,12.31,16.49,29.52,16.49,17.21,0,29.52-16.49,29.52-16.49,0,0,17.44-12.67,17.44-33.58,0-20.91-17.44-33.58-17.44-33.58ZM346.67,294.73c-11.11,0-20.12-10.52-20.12-23.49,0-12.97,9.01-23.49,20.12-23.49,11.11,0,20.12,10.52,20.12,23.49,0,12.97-9.01,23.49-20.12,23.49Z"/>
    <path d="M152.67,217.22c0,0-12.31-16.49-29.52-16.49-17.21,0-29.52,16.49-29.52,16.49,0,0-17.44,12.67-17.44,33.58,0,20.91,17.44,33.58,17.44,33.58,0,0,12.31,16.49,29.52,16.49,17.21,0,29.52-16.49,29.52-16.49,0,0,17.44-12.67,17.44-33.58,0-20.91-17.44-33.58-17.44-33.58ZM123.15,294.73c-11.11,0-20.12-10.52-20.12-23.49,0-12.97,9.01-23.49,20.12-23.49,11.11,0,20.12,10.52,20.12,23.49,0,12.97-9.01,23.49-20.12,23.49Z"/>
    <path d="M250,148.58c0,0-12.31-16.49-29.52-16.49-17.21,0-29.52,16.49-29.52,16.49,0,0-17.44,12.67-17.44,33.58,0,20.91,17.44,33.58,17.44,33.58,0,0,12.31,16.49,29.52,16.49,17.21,0,29.52-16.49,29.52-16.49,0,0,17.44-12.67,17.44-33.58,0-20.91-17.44-33.58-17.44-33.58ZM220.48,226.09c-11.11,0-20.12-10.52-20.12-23.49,0-12.97,9.01-23.49,20.12-23.49,11.11,0,20.12,10.52,20.12,23.49,0,12.97-9.01,23.49-20.12,23.49Z"/>
    <path d="M250,360.42c0,0-12.31,16.49-29.52,16.49-17.21,0-29.52-16.49-29.52-16.49,0,0-17.44-12.67-17.44-33.58,0-20.91,17.44-33.58,17.44-33.58,0,0,12.31-16.49,29.52-16.49,17.21,0,29.52,16.49,29.52,16.49,0,0,17.44,12.67,17.44,33.58,0,20.91-17.44,33.58-17.44,33.58ZM220.48,282.91c-11.11,0-20.12,10.52-20.12,23.49,0,12.97,9.01,23.49,20.12,23.49,11.11,0,20.12-10.52,20.12-23.49,0-12.97-9.01-23.49-20.12-23.49Z"/>
    <path d="M376.19,360.42c0,0-12.31,16.49-29.52,16.49-17.21,0-29.52-16.49-29.52-16.49,0,0-17.44-12.67-17.44-33.58,0-20.91,17.44-33.58,17.44-33.58,0,0,12.31-16.49,29.52-16.49,17.21,0,29.52,16.49,29.52,16.49,0,0,17.44,12.67,17.44,33.58,0,20.91-17.44,33.58-17.44,33.58ZM346.67,282.91c-11.11,0-20.12,10.52-20.12,23.49,0,12.97,9.01,23.49,20.12,23.49,11.11,0,20.12-10.52,20.12-23.49,0-12.97-9.01-23.49-20.12-23.49Z"/>
    <path d="M152.67,360.42c0,0-12.31,16.49-29.52,16.49-17.21,0-29.52-16.49-29.52-16.49,0,0-17.44-12.67-17.44-33.58,0-20.91,17.44-33.58,17.44-33.58,0,0,12.31-16.49,29.52-16.49,17.21,0,29.52,16.49,29.52,16.49,0,0,17.44,12.67,17.44,33.58,0,20.91-17.44,33.58-17.44,33.58ZM123.15,282.91c-11.11,0-20.12,10.52-20.12,23.49,0,12.97,9.01,23.49,20.12,23.49,11.11,0,20.12-10.52,20.12-23.49,0-12.97-9.01-23.49-20.12-23.49Z"/>
    <path d="M250,420.58c0,0-12.31,16.49-29.52,16.49-17.21,0-29.52-16.49-29.52-16.49,0,0-17.44-12.67-17.44-33.58,0-20.91,17.44-33.58,17.44-33.58,0,0,12.31-16.49,29.52-16.49,17.21,0,29.52,16.49,29.52,16.49,0,0,17.44,12.67,17.44,33.58,0,20.91-17.44,33.58-17.44,33.58ZM220.48,343.09c-11.11,0-20.12,10.52-20.12,23.49,0,12.97,9.01,23.49,20.12,23.49,11.11,0,20.12-10.52,20.12-23.49,0-12.97-9.01-23.49-20.12-23.49Z"/>
    <path d="M125.44,148.58c0,0-12.31,16.49-29.52,16.49-17.21,0-29.52-16.49-29.52-16.49,0,0-17.44-12.67-17.44-33.58,0-20.91,17.44-33.58,17.44-33.58,0,0,12.31-16.49,29.52-16.49,17.21,0,29.52,16.49,29.52,16.49,0,0,17.44,12.67,17.44,33.58,0,20.91-17.44,33.58-17.44,33.58ZM95.92,71.09c-11.11,0-20.12,10.52-20.12,23.49,0,12.97,9.01,23.49,20.12,23.49,11.11,0,20.12-10.52,20.12-23.49,0-12.97-9.01-23.49-20.12-23.49Z"/>
    <path d="M376.19,148.58c0,0-12.31,16.49-29.52,16.49-17.21,0-29.52-16.49-29.52-16.49,0,0-17.44-12.67-17.44-33.58,0-20.91,17.44-33.58,17.44-33.58,0,0,12.31-16.49,29.52-16.49,17.21,0,29.52,16.49,29.52,16.49,0,0,17.44,12.67,17.44,33.58,0,20.91-17.44,33.58-17.44,33.58ZM346.67,71.09c-11.11,0-20.12,10.52-20.12,23.49,0,12.97,9.01,23.49,20.12,23.49,11.11,0,20.12-10.52,20.12-23.49,0-12.97-9.01-23.49-20.12-23.49Z"/>
    <path d="M250,80.58c0,0-12.31,16.49-29.52,16.49-17.21,0-29.52-16.49-29.52-16.49,0,0-17.44-12.67-17.44-33.58,0-20.91,17.44-33.58,17.44-33.58,0,0,12.31-16.49,29.52-16.49,17.21,0,29.52,16.49,29.52,16.49,0,0,17.44,12.67,17.44,33.58,0,20.91-17.44,33.58-17.44,33.58ZM220.48,3.09c-11.11,0-20.12,10.52-20.12,23.49,0,12.97,9.01,23.49,20.12,23.49,11.11,0,20.12-10.52,20.12-23.49,0-12.97-9.01-23.49-20.12-23.49Z"/>
  </g>
</svg>
